<?xml version="1.0" encoding="UTF-8" standalone="no"?>
<svg
   xmlns:dc="http://purl.org/dc/elements/1.1/"
   xmlns:cc="http://creativecommons.org/ns#"
   xmlns:rdf="http://www.w3.org/1999/02/22-rdf-syntax-ns#"
   xmlns:svg="http://www.w3.org/2000/svg"
   xmlns="http://www.w3.org/2000/svg"
   xmlns:sodipodi="http://sodipodi.sourceforge.net/DTD/sodipodi-0.dtd"
   xmlns:inkscape="http://www.inkscape.org/namespaces/inkscape"
   width="46.775742mm"
   height="37.326843mm"
   viewBox="0 0 46.775742 37.326843"
   version="1.1"
   id="svg8"
   inkscape:version="1.0.2 (e86c870879, 2021-01-15, custom)"
   sodipodi:docname="rf2_headlights_off.svg">
  <defs
     id="defs2">
    <filter
       inkscape:menu-tooltip="In and out glow with a possible offset and colorizable flood"
       inkscape:menu="Shadows and Glows"
       inkscape:label="Cutout Glow"
       style="color-interpolation-filters:sRGB"
       id="filter47094"
       x="-0.072717823"
       width="1.1454356"
       y="-0.095497869"
       height="1.1909957">
      <feOffset
         dy="3"
         dx="3"
         id="feOffset47084" />
      <feGaussianBlur
         stdDeviation="1.2001894"
         result="blur"
         id="feGaussianBlur47086" />
      <feFlood
         flood-color="rgb(0,0,0)"
         flood-opacity="1"
         result="flood"
         id="feFlood47088" />
      <feComposite
         in="flood"
         in2="SourceGraphic"
         operator="in"
         result="composite"
         id="feComposite47090" />
      <feBlend
         in="blur"
         in2="composite"
         mode="normal"
         id="feBlend47092" />
    </filter>
    <filter
       inkscape:menu-tooltip="In and out glow with a possible offset and colorizable flood"
       inkscape:menu="Shadows and Glows"
       inkscape:label="Cutout Glow"
       style="color-interpolation-filters:sRGB"
       id="filter47106"
       x="-0.090432867"
       width="1.1808656"
       y="-0.11876245"
       height="1.2375249">
      <feOffset
         dy="0.68027210884353906"
         dx="0.68027210884353906"
         id="feOffset47096" />
      <feGaussianBlur
         stdDeviation="1.4925718"
         result="blur"
         id="feGaussianBlur47098" />
      <feFlood
         flood-color="rgb(0,0,0)"
         flood-opacity="1"
         result="flood"
         id="feFlood47100" />
      <feComposite
         in="flood"
         in2="SourceGraphic"
         operator="in"
         result="composite"
         id="feComposite47102" />
      <feBlend
         in="blur"
         in2="composite"
         mode="normal"
         id="feBlend47104" />
    </filter>
  </defs>
  <sodipodi:namedview
     id="base"
     pagecolor="#ffffff"
     bordercolor="#666666"
     borderopacity="1.0"
     inkscape:pageopacity="0.0"
     inkscape:pageshadow="2"
     inkscape:zoom="3.959798"
     inkscape:cx="68.468957"
     inkscape:cy="56.414319"
     inkscape:document-units="mm"
     inkscape:current-layer="layer2"
     inkscape:document-rotation="0"
     showgrid="false"
     fit-margin-top="0"
     fit-margin-left="0"
     fit-margin-right="0"
     fit-margin-bottom="0"
     inkscape:pagecheckerboard="true"
     inkscape:window-width="2560"
     inkscape:window-height="1346"
     inkscape:window-x="1429"
     inkscape:window-y="506"
     inkscape:window-maximized="1" />
  <metadata
     id="metadata5">
    <rdf:RDF>
      <cc:Work
         rdf:about="">
        <dc:format>image/svg+xml</dc:format>
        <dc:type
           rdf:resource="http://purl.org/dc/dcmitype/StillImage" />
        <dc:title></dc:title>
      </cc:Work>
    </rdf:RDF>
  </metadata>
  <g
     inkscape:label="Ebene 1"
     inkscape:groupmode="layer"
     id="layer1"
     transform="translate(-28.054944,-8.5508635)"
     style="display:inline" />
  <g
     inkscape:groupmode="layer"
     id="layer2"
     inkscape:label="Ebene 2"
     style="display:inline"
     transform="translate(3.506068,-1.1803276)">
    <path
       style="display:inline;fill:#696969;stroke-width:0.265;stroke-miterlimit:4;stroke-dasharray:none"
       d="M 47.819553,41.908911 C 38.445026,40.205947 32.822527,35.699659 31.795909,29.066369 30.739554,22.240946 35.004522,16.447211 43.071546,13.749011 c 2.350331,-0.786122 6.37029,-1.615975 7.828076,-1.615975 h 0.748461 l 0.541766,1.754034 c 0.848442,2.746933 1.545962,6.553139 1.848361,10.08607 0.431339,5.039345 -0.293088,11.532976 -1.848361,16.568362 l -0.541766,1.754034 -0.981556,-0.02387 c -0.539856,-0.01312 -1.820994,-0.176368 -2.846974,-0.362746 z m 1.98574,-3.780563 c 0.957914,-3.425131 1.196905,-5.604391 1.196905,-10.914062 0,-5.309671 -0.238991,-7.488932 -1.196905,-10.914063 -0.334645,-1.196563 -0.410509,-1.20339 -3.804734,-0.342374 -4.866785,1.234561 -8.643255,3.690705 -10.269866,6.679326 -1.901271,3.493262 -1.307492,8.097313 1.429138,11.08125 2.034007,2.217819 4.602589,3.585212 8.953264,4.766299 3.159696,0.857771 3.357988,0.838631 3.692198,-0.356376 z m 6.985897,-2.910416 c 0.0902,-0.545703 0.165308,-1.200547 0.16691,-1.455209 l 0.0029,-0.46302 h 7.14375 7.14375 v 1.455208 1.455208 h -7.31066 -7.310661 z m 0.698989,-8.003646 v -1.5875 h 6.879166 6.879167 v 1.5875 1.5875 H 64.369345 57.490179 Z M 56.785726,19.409078 56.52196,17.953869 h 7.363277 7.363275 v 1.455209 1.455208 h -7.099509 -7.099511 z"
       id="path47081"
       transform="translate(-31.561011,-7.370536)" />
  </g>
</svg>
